<?xml version="1.0" encoding="UTF-8" standalone="no"?>
<svg
   height="16"
   viewBox="0 0 16 16"
   width="16"
   version="1.1"
   id="svg5"
   sodipodi:docname="icon.svg"
   inkscape:version="1.3.2 (091e20e, 2023-11-25, custom)"
   inkscape:export-filename="label_fixer_icon.png"
   inkscape:export-xdpi="450"
   inkscape:export-ydpi="450"
   xmlns:inkscape="http://www.inkscape.org/namespaces/inkscape"
   xmlns:sodipodi="http://sodipodi.sourceforge.net/DTD/sodipodi-0.dtd"
   xmlns="http://www.w3.org/2000/svg"
   xmlns:svg="http://www.w3.org/2000/svg">
  <defs
     id="defs5" />
  <sodipodi:namedview
     id="namedview5"
     pagecolor="#ffffff"
     bordercolor="#000000"
     borderopacity="0.25"
     inkscape:showpageshadow="2"
     inkscape:pageopacity="0.0"
     inkscape:pagecheckerboard="0"
     inkscape:deskcolor="#d1d1d1"
     inkscape:zoom="77.3125"
     inkscape:cx="7.9935327"
     inkscape:cy="7.8577203"
     inkscape:window-width="2880"
     inkscape:window-height="1514"
     inkscape:window-x="6709"
     inkscape:window-y="-11"
     inkscape:window-maximized="1"
     inkscape:current-layer="svg5" />
  <g
     transform="translate(-0.09054163,-1034.9184)"
     id="g5">
    <path
       d="m 1.5,1041.8622 2,-3 h 11 v 7 h -11 l -2,-3 z"
       fill="#fff17a"
       fill-rule="evenodd"
       stroke="#c5a202"
       id="path1" />
    <g
       fill="none"
       stroke="#000000"
       stroke-width="0.5"
       id="g4"
       transform="translate(0,-2)">
      <path
         d="M 4.9657247,1044.1008 H 6.5 v 2 l -1.75,0.01 v -1.002 l 1.75,-0.016"
         id="path2" />
      <path
         d="m 8,1042.3622 v 3.75 h 1.75 v -2 H 8"
         id="path3" />
      <path
         d="m 13,1044.1122 h -1.5 v 2 H 13"
         id="path4" />
    </g>
    <g
       id="g6"
       transform="matrix(0.88091427,-1.0919219,1.004517,0.95756427,-1058.5838,50.509522)">
      <rect
         style="fill:#502d16;stroke:none;stroke-width:1.17251"
         id="rect5"
         width="1.0391188"
         height="4.1847672"
         x="-46.596928"
         y="1053.033"
         transform="matrix(0.99855026,0.05382728,0.05307596,0.99859048,0,0)" />
      <path
         d="m 11.571085,1048.5816 -0.529933,0.6508 -2.7729478,0.018 0.060142,-1.5107 2.7728328,-0.018 0.478438,0.6441 z"
         fill="#fff17a"
         fill-rule="evenodd"
         stroke="#c5a202"
         id="path1-8"
         style="fill:#666666;stroke:none;stroke-width:0.233209" />
    </g>
  </g>
</svg>
